<svg xmlns="http://www.w3.org/2000/svg" viewBox="0 0 1050.73 1050.72"><defs><style>.cls-1{fill:#1c2933;}.cls-2{fill:#0d1011;opacity:0.3;}.cls-3{fill:#6ba6ce;}.cls-4{fill:#235887;opacity:0.75;}.cls-5,.cls-7{fill:none;stroke:#fff;stroke-linecap:round;}.cls-5{stroke-linejoin:round;stroke-width:30px;}.cls-6{font-size:131px;font-family:OmnesBlack, Omnes;}.cls-6,.cls-8{fill:#fff;}.cls-7{stroke-miterlimit:10;stroke-width:3px;}.cls-9{fill:#bbb;}</style></defs><g id="Ebene_2" data-name="Ebene 2"><g id="Ebene_1-2" data-name="Ebene 1"><path class="cls-1" d="M1050.73,525.36c0,188.44-99.21,353.7-248.24,446.4a522.76,522.76,0,0,1-277.12,79C235.22,1050.72,0,815.51,0,525.36S235.22,0,525.37,0c277.18,0,504.23,214.66,524,486.81Q1050.72,505.91,1050.73,525.36Z"/><path class="cls-2" d="M1050.73,520c0,188.44-99.21,353.7-248.24,446.4L426.21,769.1l16.37-93.32v0l85.09-484.88,4.24,2.35h0L1049.33,481.4Q1050.72,500.5,1050.73,520Z"/><path class="cls-3" d="M768.46,550.68a240.79,240.79,0,1,1-481.58,0c0-19.2,3.48-38,10.65-57.51,6.36-17.3,15.52-34.77,28-53.42,23-34.43,53.2-66.77,85.15-101,42.37-45.4,86.18-92.36,112.54-145.09a5,5,0,0,1,8.94,0c26.36,52.73,70.17,99.69,112.54,145.09,32,34.24,62.12,66.58,85.15,101,12.46,18.65,21.62,36.12,28,53.42C765,512.67,768.46,531.48,768.46,550.68Z"/><path class="cls-4" d="M527.67,190.89c-125.42,288.67-142.62,498.09,0,600.58A240.61,240.61,0,0,1,286.88,550.68c0-19.2,3.48-38,10.65-57.51,6.36-17.3,15.52-34.77,28-53.42,23-34.43,53.2-66.77,85.15-101,42.37-45.4,86.18-92.36,112.54-145.09A5,5,0,0,1,527.67,190.89Z"/><path class="cls-5" d="M695.1,627.11s-10.23,58.67-71.34,88.78"/><text class="cls-6" transform="translate(387.63 596.33)">CS</text><line class="cls-7" x1="554.75" y1="554.04" x2="565.72" y2="600.87"/><path class="cls-8" d="M558.85,609.66a6.06,6.06,0,0,1,1.19-1.33,4.18,4.18,0,0,1,1.23-.52l10.11-3.06a16.59,16.59,0,0,1,3.4-.78,5.82,5.82,0,0,1,3.39.6,2.67,2.67,0,0,1,1.07,1,1.46,1.46,0,0,1,0,1.42,2.35,2.35,0,0,1-1.34.83L574.31,609,556,615.21c-.12-.87-.64-2.29,0-3C556.78,611.21,558,610.67,558.85,609.66Z"/><path class="cls-8" d="M580.67,609.51c1.05,1.12,2.87.75,4.39.51a31.84,31.84,0,0,1,8.82.27,10.26,10.26,0,0,1,4.1,1.11c.86.53,1.63,1.34,2.64,1.44a9,9,0,0,0,1.77-.23,1.57,1.57,0,0,1,1.58.6,1.3,1.3,0,0,1-.3,1.47,3.82,3.82,0,0,1-1.37.82l1.8-.32a3.86,3.86,0,0,1-2.63,3.25,11.5,11.5,0,0,1-4.38.47l-5.49-.13a2.41,2.41,0,0,0-1.13.15.84.84,0,0,0-.49.94c.39-.54,1.37-.22,1.54.42a1.53,1.53,0,0,1-.88,1.63,4.42,4.42,0,0,1-1.95.35l-7.11.19a129.93,129.93,0,0,1-15.54-.18,17.28,17.28,0,0,1-5.09-1c-1.1-.45-3.5-1.7-3.64-3.09-.11-1.14,4-1.89,4.91-2.2q5.91-2,11.78-4Q577.35,610.73,580.67,609.51Z"/><text class="cls-6" transform="translate(387.63 596.33)">C</text><path class="cls-9" d="M430.81,509.81l-2.92,32.84a13.81,13.81,0,0,0-3.13,4.42s-1.11,1.9-1.34,6.12a20.92,20.92,0,0,0,.36,4.58,14.3,14.3,0,0,0,1.6,4.22,12.93,12.93,0,0,0,1.71,2.39l.83,33.38s-36.36-3.18-37.41-42.48C390.51,555.28,387.24,514.18,430.81,509.81Z"/></g></g></svg>